<svg width="8" height="5" viewBox="0 0 8 5" fill="none" xmlns="http://www.w3.org/2000/svg">
<path d="M6.72143 0.421106C6.75305 0.387653 6.7961 0.368835 6.841 0.368835C6.88591 0.368835 6.92895 0.387653 6.96058 0.421106L7.31762 0.795734C7.35018 0.827801 7.36865 0.872573 7.36865 0.919432C7.36865 0.966291 7.35018 1.01106 7.31762 1.04313L4.22215 4.29108C4.17482 4.34081 4.11061 4.36877 4.04363 4.36884L3.95606 4.36884C3.88908 4.36877 3.82487 4.34081 3.77754 4.29108L0.682072 1.04313C0.649508 1.01106 0.631037 0.966291 0.631037 0.919432C0.631037 0.872573 0.649508 0.827801 0.682072 0.795734L1.03911 0.421106C1.07073 0.387652 1.11378 0.368835 1.15869 0.368835C1.20359 0.368835 1.24664 0.387652 1.27826 0.421106L3.99984 3.27676L6.72143 0.421106Z" fill="#474747"/>
</svg>
